<svg xmlns="http://www.w3.org/2000/svg" aria-label="bmrks logo" width="24" height="22" viewBox="0 0 26 24" fill="none" class="header_logo___eW3r"><g clip-path="url(#clip0_4512_153)"><path d="M10.1578 13.2664C9.79022 12.9704 9.25751 12.9887 8.95294 13.4635C6.21788 17.7271 8.70907 22.6309 13.4013 23.6917C22.7613 25.7943 28.3909 16.6378 24.6944 11.5169C23.5729 9.95754 21.3037 9.0602 18.6171 9.59026C21.8623 6.68289 22.5609 2.44035 20.2857 1.58032C18.1454 0.774201 15.8912 2.86156 14.6622 5.0788C15.2621 2.96431 15.3594 0.292295 13.5373 0.0203117C11.706 -0.250993 10.7564 2.25858 10.2477 3.78467C10.0781 2.39423 9.12858 0.800314 7.80596 0.800314C4.58421 0.800314 5.19465 6.83686 5.46596 9.51599C4.92335 9.04121 3.66856 8.22729 2.4816 8.19338C1.12507 8.22729 -0.0958005 9.21078 0.00593893 11.2456C0.192461 13.7348 2.52026 16.4523 5.3649 17.6172C5.77253 17.784 6.23409 17.5493 6.34566 17.1231C6.43926 16.7659 6.25206 16.3953 5.9092 16.2579C3.50713 15.2962 1.58934 12.9599 1.4642 11.1438C1.39638 10.3299 1.73551 9.65165 2.51551 9.65165C3.37453 9.65165 4.55268 10.4381 5.34251 11.1191C5.67384 11.4046 6.15168 11.4433 6.52201 11.2103L6.53286 11.2035C6.85436 11.0014 7.03241 10.6334 6.99137 10.256C6.69429 7.52902 6.2073 2.25858 7.80563 2.25858C9.07262 2.25858 8.97054 6.36716 8.93154 8.2707C8.92272 8.6936 9.26355 9.04121 9.68645 9.04121C10.0507 9.04121 10.363 8.78143 10.4291 8.42297C10.8198 6.30544 11.7124 1.71597 12.9604 1.71597C14.2084 1.71597 13.1676 5.99004 12.6138 8.07875C12.485 8.56507 12.8516 9.04121 13.3545 9.04121C13.6326 9.04121 13.8886 8.89097 14.0239 8.64816C15.1007 6.71714 17.6048 2.66249 19.4039 3.0725C21.0172 3.45198 19.2371 7.37268 16.1554 9.76966C15.7681 10.0712 15.6545 10.608 15.8854 11.0411C16.1103 11.4626 16.5993 11.6681 17.0582 11.5355C19.7139 10.7691 21.9776 11.1489 22.9987 12.263C26.017 15.5186 22.2187 23.556 14.1474 22.1317C10.0374 21.3931 8.26854 17.7362 10.3369 14.2984C10.5424 13.9569 10.4681 13.5167 10.1578 13.2668V13.2664Z" fill="var(--c-gray12)"/></g><defs><clipPath id="clip0_4512_153"><rect width="25.8415" height="24" fill="white"/></clipPath></defs></svg>