<svg xmlns="http://www.w3.org/2000/svg" viewBox="0 0 40 40" fill="none" role="img" aria-describedby=":r0:" width="40" height="40" class="avatar-module_fallback__Tf3oZ"><title id=":r0:">Fallback avatar for w</title><mask id="mask__marble" maskUnits="userSpaceOnUse" x="0" y="0" width="40" height="40"><rect width="40" height="40" rx="80" fill="#FFFFFF"/></mask><g mask="url(#mask__marble)"><rect width="40" height="40" fill="#FFB6C1"/><path filter="url(#prefix__filter0_f)" d="M32.414 59.35L50.376 70.5H72.5v-71H33.728L26.5 13.381l19.057 27.08L32.414 59.35z" fill="#74B06F" transform="&#10;            translate(2 -2)&#10;            rotate(238 20 20)&#10;            scale(1.2)&#10;          "/><path filter="url(#prefix__filter0_f)" d="M22.216 24L0 46.75l14.108 38.129L78 86l-3.081-59.276-22.378 4.005 12.972 20.186-23.35 27.395L22.215 24z" fill="#6A5ACD" transform="&#10;            translate(1 1)&#10;            rotate(357 20 20)&#10;            scale(1.3)&#10;          " style="mix-blend-mode: overlay;"/></g><defs><filter id="prefix__filter0_f" filterUnits="userSpaceOnUse" color-interpolation-filters="sRGB"><feFlood flood-opacity="0" result="BackgroundImageFix"/><feBlend in="SourceGraphic" in2="BackgroundImageFix" result="shape"/><feGaussianBlur stdDeviation="7" result="effect1_foregroundBlur"/></filter></defs></svg>